<svg width="86" height="86" viewBox="0 0 86 86" fill="none" xmlns="http://www.w3.org/2000/svg">
<g clip-path="url(#clip0_1520_365)">
<path d="M10.6093 22.9828L48.07 5.51459C53.7428 2.86932 60.486 5.32364 63.1312 10.9963L79.9233 47.007C82.5685 52.6798 80.1142 59.4229 74.4414 62.0682L36.9807 79.5364C31.308 82.1815 24.5648 79.7273 21.9196 74.0545L5.12754 38.0439C2.48227 32.3711 4.93664 25.628 10.6093 22.9828Z" fill="#00005B"/>
<path d="M39.4172 50.7416L30.4287 54.933L31.2541 61.4776C31.2776 61.5928 31.2601 61.7126 31.2046 61.8163C31.1492 61.92 31.0593 62.0011 30.9505 62.0456L26.3979 64.1685C26.1383 64.2895 25.9809 64.1892 25.9259 63.8675L23.3001 37.9185C23.2691 37.6488 23.2405 37.3843 23.179 37.0495C23.0389 36.4828 22.845 35.9309 22.5999 35.4011C22.5773 35.3665 22.5632 35.3272 22.5585 35.2863C22.5538 35.2453 22.5587 35.2038 22.5728 35.1651C22.5869 35.1263 22.6098 35.0914 22.6397 35.063C22.6697 35.0347 22.7058 35.0137 22.7452 35.0017L28.9321 32.1167C29.1132 32.0322 29.2474 32.0487 29.3342 32.1661L49.7186 52.8201C49.9175 53.0434 49.9002 53.2094 49.6667 53.3181L44.6082 55.6769C44.5258 55.7271 44.428 55.7455 44.333 55.7287C44.238 55.712 44.1524 55.6612 44.0921 55.5859L39.4172 50.7416ZM27.9661 37.9692L27.9271 37.9874L29.5915 49.4805L35.7395 46.6137L27.9661 37.9692ZM60.369 38.2746L52.7036 41.849C53.1511 42.5636 53.7436 43.1765 54.4426 43.648C55.1803 44.0938 56.0322 44.314 56.8934 44.2816C58.0658 44.2488 59.2174 43.9636 60.2696 43.4454C61.1053 43.036 61.9022 42.5521 62.6509 41.9995C63.3437 41.5549 63.9801 41.0282 64.5465 40.4308C64.6278 40.2672 64.7229 40.3012 64.8318 40.5347L66.5555 44.2312C66.6089 44.3289 66.6357 44.439 66.6332 44.5503C66.6216 44.6418 66.5897 44.7296 66.5397 44.8071C65.9289 45.5069 65.2314 46.126 64.4639 46.6494C63.4341 47.3877 62.3326 48.0204 61.1759 48.5379C59.3337 49.397 57.6572 49.8314 56.1463 49.8411C54.7279 49.8714 53.3221 49.5699 52.0409 48.9606C50.8403 48.3834 49.7683 47.5703 48.8889 46.5697C48.0198 45.5826 47.2965 44.4762 46.741 43.2841C46.1305 41.9844 45.7308 40.5957 45.5569 39.1702C45.3823 37.7821 45.4729 36.3734 45.824 35.0191C46.5977 32.0345 48.6268 29.9949 51.3652 28.7179C53.725 27.6176 56.5101 27.2703 58.9111 28.4427C59.9321 28.9681 60.8525 29.6694 61.6299 30.5145C62.3822 31.3275 63.0049 32.2515 63.4759 33.254C63.7421 33.8249 63.9645 34.3528 64.1432 34.8377C64.3221 35.3227 64.447 35.6751 64.5178 35.8947C64.5476 35.9852 64.5433 36.0835 64.5055 36.171C64.4677 36.2585 64.3991 36.3291 64.3128 36.3694C64.1571 36.4419 63.9003 36.5854 63.5424 36.7996C63.1841 37.014 62.7293 37.2576 62.1779 37.5306C61.6255 37.8042 60.9916 37.9842 60.369 38.2746ZM51.0506 38.3043L56.148 35.9273C56.7706 35.637 57.2279 35.4159 57.5202 35.2637C57.7105 35.1507 57.8735 34.997 57.9974 34.8136L57.8885 34.58C57.7388 34.2794 57.5457 34.0023 57.3156 33.7577C56.7961 33.1918 56.1052 32.812 55.3489 32.6769C54.5927 32.5417 53.813 32.6586 53.1296 33.0095C52.4563 33.2752 51.8749 33.7312 51.4563 34.3217C51.0377 34.9122 50.8 35.6118 50.7722 36.3351C50.7585 37.0022 50.8525 37.6671 51.0506 38.3043Z" fill="#9999FF"/>
</g>
<defs>
<clipPath id="clip0_1520_365">
<rect width="64" height="64" fill="white" transform="translate(0 27.0469) rotate(-25)"/>
</clipPath>
</defs>
</svg>
