<svg width="86" height="86" viewBox="0 0 86 86" fill="none" xmlns="http://www.w3.org/2000/svg">
<g clip-path="url(#clip0_1520_359)">
<path d="M10.6094 22.9818L48.0702 5.51355C53.7497 2.86516 60.4828 5.31584 63.1313 10.9954L79.9233 47.0061C82.5717 52.6856 80.1211 59.4189 74.4415 62.0673L36.9809 79.5355C31.3012 82.1838 24.568 79.7332 21.9196 74.0536L5.12758 38.043C2.47914 32.3634 4.92981 25.6302 10.6094 22.9818Z" fill="#390000"/>
<path d="M44.2682 48.5965L35.2776 52.7889L36.0893 59.3249C36.1423 59.5649 36.0167 59.8001 35.7879 59.8774L31.2443 61.9961C30.9784 62.1201 30.8383 62.0089 30.7755 61.6851L28.1105 35.6523C28.0704 35.3768 28.0189 35.0771 27.9803 34.742C27.8402 34.1895 27.6407 33.6352 27.3927 33.1035C27.3122 32.9938 27.3525 32.828 27.4621 32.7474L33.7216 29.8285C33.915 29.7384 34.0455 29.7658 34.126 29.8754L54.5553 50.6551C54.7518 50.8872 54.7356 51.0418 54.494 51.1545L49.4428 53.5099C49.2849 53.6129 49.0593 53.571 48.9321 53.4243L44.2682 48.5965ZM34.3916 47.2291L40.5303 44.3665L32.7373 35.7309L34.3916 47.2291ZM50.0531 27.2446C49.2668 27.6406 48.3469 27.6871 47.5077 27.4017C46.67 27.0567 46.0081 26.3944 45.6491 25.5613C45.2418 24.7509 45.1953 23.831 45.5162 23.0046C45.837 22.1782 46.4752 21.5275 47.2727 21.1556C48.2153 20.7161 49.0756 20.668 49.8664 20.976C50.6752 21.3123 51.3211 21.9505 51.667 22.7551C52.0743 23.5656 52.1562 24.4984 51.8579 25.3731C51.5726 26.2123 50.8973 26.9097 50.0531 27.2446ZM57.1285 49.4847L48.4507 30.8752C48.3381 30.6335 48.3896 30.4917 48.6071 30.3903L53.3924 28.1589C53.6099 28.0574 53.7629 28.1333 53.8643 28.3508L62.5421 46.9603C62.6661 47.2262 62.6258 47.3921 62.4083 47.4935L57.6713 49.7023C57.4296 49.8151 57.2412 49.7264 57.1285 49.4847Z" fill="#FF9A00"/>
</g>
<defs>
<clipPath id="clip0_1520_359">
<rect width="64" height="64" fill="white" transform="translate(0 27.0469) rotate(-25)"/>
</clipPath>
</defs>
</svg>
