<svg width="86" height="86" viewBox="0 0 86 86" fill="none" xmlns="http://www.w3.org/2000/svg">
<g clip-path="url(#clip0_1520_381)">
<rect y="27.0479" width="64" height="64" rx="12" transform="rotate(-25 0 27.0479)" fill="white"/>
<path d="M51.4442 42.475C50.0153 42.0337 48.4283 42.2429 46.6275 43.0826L36.1546 47.9662L41.0869 58.5434L51.5597 53.6598C53.3604 52.8201 54.5466 51.7016 55.0948 50.3036C55.6568 48.9107 55.5404 47.3496 54.7448 45.6436C53.9626 43.9661 52.8731 42.9164 51.4442 42.475ZM46.8259 36.3323C47.3936 35.0752 47.3283 33.698 46.6212 32.1816C45.8256 30.4756 44.8378 29.4708 43.6622 29.1766C42.4867 28.8825 41.091 29.1064 39.4797 29.8578L29.8125 34.3657L34.1702 43.7108L43.8374 39.2029C45.2592 38.5399 46.2582 37.5894 46.8259 36.3323Z" fill="#5E3B7F"/>
<path d="M48.3365 4.50819L9.66725 22.5399C4.35028 25.0193 2.02857 31.3981 4.50791 36.7151L22.5396 75.3842C25.019 80.7013 31.3978 83.023 36.7148 80.5436L75.3839 62.5119C80.701 60.0326 83.0227 53.6537 80.5434 48.3367L62.5116 9.66753C60.0323 4.35056 53.6534 2.02885 48.3365 4.50819ZM62.0481 47.6957C62.1134 49.0729 61.8382 50.4129 61.213 51.7198C60.5879 53.0267 59.6082 54.2912 58.2553 55.5222C56.9024 56.753 55.1407 57.8745 52.9608 58.891L37.4172 66.1391L21.6395 32.3035L38.0833 24.6357C41.1161 23.2214 43.8746 22.7774 46.3534 23.3177C48.8322 23.858 50.7283 25.5239 52.0409 28.3387C52.8364 30.0448 53.1 31.6987 52.8317 33.3008C52.5634 34.903 51.8111 36.4076 50.5661 37.7958L50.6103 37.8907C52.9031 37.3638 54.9456 37.6114 56.728 38.638C58.5149 39.674 59.9479 41.3365 61.0263 43.6491C61.6451 44.9758 61.9872 46.3279 62.0481 47.6957Z" fill="#5E3B7F"/>
</g>
<defs>
<clipPath id="clip0_1520_381">
<rect y="27.0479" width="64" height="64" rx="12" transform="rotate(-25 0 27.0479)" fill="white"/>
</clipPath>
</defs>
</svg>
