<svg width="86" height="86" viewBox="0 0 86 86" fill="none" xmlns="http://www.w3.org/2000/svg">
<g clip-path="url(#clip0_1520_377)">
<path d="M3.625 25.3574L32.59 75.4054L56.0492 71.5278L74.0933 56.0565L54.3782 1.6908L3.625 25.3574Z" fill="#2196F3"/>
<path d="M52.4571 23.3707L54.9315 30.2009L62.337 50.6821L50.8839 60.4496L50.8747 60.4583L36.036 62.9465L30.3246 53.093L36.763 50.0908L39.7282 55.2003L47.7729 53.797L47.7748 53.7917L54.0317 48.5261L50.8636 39.1859L28.3869 49.742L24.9156 43.9637L48.4691 32.6407L45.9149 25.9138L21.1504 37.5456L17.9121 31.6895L50.0462 16.7051L52.4571 23.3707Z" fill="#FAFAFA"/>
</g>
<defs>
<clipPath id="clip0_1520_377">
<rect width="64" height="64" fill="white" transform="translate(0 27.0479) rotate(-25)"/>
</clipPath>
</defs>
</svg>
