<svg width="67" height="77" viewBox="0 0 67 77" fill="none" xmlns="http://www.w3.org/2000/svg">
<g clip-path="url(#clip0_1520_342)">
<g clip-path="url(#clip1_1520_342)">
<path d="M33.0167 38.0918C30.5525 32.8072 32.8739 26.5089 38.202 24.0243C43.5299 21.5399 49.847 23.8099 52.3113 29.0946C54.7757 34.3794 52.454 40.6776 47.1261 43.1621C41.798 45.6466 35.4811 43.3766 33.0167 38.0918Z" fill="#1ABCFE"/>
<path d="M22.6456 66.2266C20.1814 60.9419 22.5028 54.6436 27.8309 52.1591L37.4782 47.6605L41.9402 57.2294C44.4046 62.5141 42.0831 68.8123 36.755 71.2968C31.4269 73.7813 25.11 71.5114 22.6456 66.2266Z" fill="#0ACF83"/>
<path d="M19.6309 9.38525L28.5549 28.5229L38.2022 24.0243C43.5303 21.5398 45.8518 15.2416 43.3875 9.95689C40.9232 4.67217 34.6063 2.40211 29.2782 4.88665L19.6309 9.38525Z" fill="#FF7262"/>
<path d="M4.79797 27.9512C7.26228 33.2359 13.5792 35.5059 18.9073 33.0214L28.5546 28.5228L19.6305 9.38511L9.98323 13.8837C4.65517 16.3682 2.33366 22.6664 4.79797 27.9512Z" fill="#F24E1E"/>
<path d="M13.7218 47.0889C16.1861 52.3737 22.5031 54.6437 27.8311 52.1591L37.4784 47.6605L28.5544 28.5228L18.9071 33.0214C13.579 35.5059 11.2575 41.8042 13.7218 47.0889Z" fill="#A259FF"/>
</g>
</g>
<defs>
<clipPath id="clip0_1520_342">
<rect width="43.0164" height="64" fill="white" transform="translate(0 18.1797) rotate(-25)"/>
</clipPath>
<clipPath id="clip1_1520_342">
<rect width="43.0164" height="64" fill="white" transform="translate(0 18.1797) rotate(-25)"/>
</clipPath>
</defs>
</svg>
