<svg width="86" height="86" viewBox="0 0 86 86" fill="none" xmlns="http://www.w3.org/2000/svg">
<g clip-path="url(#clip0_1520_370)">
<path d="M3.39844 25.4629L30.673 74.5478L56.0719 71.5171L74.7194 54.0086L54.6499 1.56393L3.39844 25.4629Z" fill="#FF7816"/>
<path d="M54.6492 1.56419L74.7186 54.0089L56.071 71.5174L29.0234 13.5137L54.6492 1.56419Z" fill="#FF4B00"/>
<path d="M52.2174 21.456L27.0334 33.1995L31.607 41.411L55.5679 30.2378L63.6995 51.4924L51.9363 62.6464L35.8305 64.4879L32.1536 57.8447L38.9509 54.675L39.9585 56.4809L48.5924 55.4751L54.9126 49.5077L51.43 40.4427L28.4213 51.1718L16.5566 29.8096L49.5236 14.4368L52.2174 21.456Z" fill="#ECECF1"/>
<path d="M55.567 30.2376L63.6986 51.4922L51.9353 62.6462L48.5914 55.4751L54.9115 49.5076L51.4291 40.4425L43.3404 44.2143L40.1707 37.417L55.567 30.2376ZM49.5227 14.4366L52.2165 21.4558L36.2088 28.9203L33.0392 22.123L49.5227 14.4366Z" fill="#E2E2E7"/>
</g>
<defs>
<clipPath id="clip0_1520_370">
<rect width="64" height="64" fill="white" transform="translate(0 27.0479) rotate(-25)"/>
</clipPath>
</defs>
</svg>
