<svg width="44" height="44" viewBox="0 0 44 44" fill="none" xmlns="http://www.w3.org/2000/svg">
<g clip-path="url(#clip0_1612_460)">
<path d="M43.6184 32.0134L39.1084 29.7584L36.2381 22.2921C36.2043 22.2038 36.1527 22.1235 36.0864 22.0561C36.0202 21.9886 35.9407 21.9356 35.8531 21.9002L18.0434 14.7812C17.9189 14.7316 17.7826 14.7195 17.6512 14.7464C17.5199 14.7733 17.3994 14.8379 17.3043 14.9324L14.929 17.3077C14.8357 17.4029 14.7721 17.523 14.7459 17.6536C14.7197 17.7842 14.7319 17.9196 14.7812 18.0434L21.9003 35.8531C21.9356 35.9407 21.9886 36.0202 22.0561 36.0864C22.1235 36.1526 22.2039 36.2043 22.2921 36.2381L29.7584 39.1084L32.0134 43.6184C32.0609 43.7178 32.1316 43.8044 32.2195 43.8708C32.3074 43.9372 32.41 43.9815 32.5187 43.9999C32.5553 44.0033 32.5921 44.0033 32.6287 43.9999C32.8107 43.9992 32.985 43.9262 33.1134 43.7971L43.7971 33.1134C43.8758 33.0375 43.9352 32.944 43.9704 32.8405C44.0057 32.7371 44.0158 32.6268 43.9999 32.5187C43.9815 32.41 43.9372 32.3074 43.8708 32.2195C43.8044 32.1315 43.7178 32.0608 43.6184 32.0134ZM16.2215 17.954L16.6031 17.5759L25.4684 26.4412C24.8841 27.2691 24.6318 28.2861 24.7613 29.291C24.8908 30.296 25.3926 31.2158 26.1677 31.8686C26.9427 32.5214 27.9344 32.8595 28.9468 32.8163C29.9592 32.773 30.9184 32.3514 31.635 31.6349C32.3515 30.9184 32.773 29.9592 32.8163 28.9468C32.8596 27.9344 32.5214 26.9427 31.8686 26.1676C31.2159 25.3926 30.296 24.8907 29.2911 24.7613C28.2861 24.6318 27.2691 24.8841 26.4412 25.4684L17.5759 16.6031L17.954 16.2215L35.0624 23.0656L37.7609 30.0849L30.0849 37.7609L23.0656 35.0624L16.2215 17.954ZM28.7718 26.1009C29.3897 26.1018 29.9882 26.3169 30.4652 26.7096C30.9423 27.1022 31.2685 27.6482 31.3882 28.2543C31.5079 28.8605 31.4137 29.4894 31.1217 30.034C30.8297 30.5785 30.358 31.005 29.7868 31.2407C29.2157 31.4764 28.5805 31.5069 27.9894 31.3268C27.3983 31.1467 26.888 30.7673 26.5453 30.2531C26.2026 29.739 26.0488 29.1219 26.1101 28.5071C26.1713 27.8922 26.4438 27.3176 26.8812 26.8812C27.3831 26.3808 28.0631 26.1002 28.7718 26.1009ZM32.8178 42.1506L31.099 38.7131L38.7062 31.1059L42.1437 32.8246L32.8178 42.1506Z" fill="url(#paint0_linear_1612_460)"/>
<path d="M13.1488 36.7812C13.0174 36.6569 12.8433 36.5877 12.6624 36.5877C12.4815 36.5877 12.3075 36.6569 12.176 36.7812L11.3029 37.6543C8.9729 34.492 7.68751 30.6815 7.62589 26.754C7.56427 22.8265 8.72949 18.9775 10.9592 15.7437C11.6272 16.1112 12.3963 16.2524 13.1513 16.1461C13.9063 16.0398 14.6065 15.6916 15.147 15.1538C15.6875 14.6161 16.0392 13.9176 16.1493 13.1631C16.2594 12.4087 16.1221 11.6388 15.7579 10.969C18.9918 8.73933 22.8407 7.57411 26.7682 7.63573C30.6957 7.69734 34.5062 8.98273 37.6685 11.3127L36.7817 12.1755C36.6538 12.3045 36.5821 12.4787 36.5823 12.6602C36.5818 12.7507 36.5991 12.8404 36.6333 12.9242C36.6675 13.0079 36.7179 13.0841 36.7817 13.1484L39.8135 16.1562C39.9423 16.2842 40.1166 16.3561 40.2982 16.3561C40.4798 16.3561 40.6541 16.2842 40.7829 16.1562L43.7976 13.1415C43.8615 13.0776 43.9122 13.0018 43.9468 12.9184C43.9814 12.8349 43.9992 12.7454 43.9992 12.6551C43.9992 12.5647 43.9814 12.4753 43.9468 12.3918C43.9122 12.3083 43.8615 12.2325 43.7976 12.1687L40.7829 9.15399C40.6541 9.02594 40.4798 8.95407 40.2982 8.95407C40.1166 8.95407 39.9423 9.02594 39.8135 9.15399L38.6482 10.3124C35.7762 8.15126 32.3807 6.79344 28.8104 6.37842C25.2402 5.9634 21.6238 6.50612 18.3326 7.95086L22.296 3.99774C22.7454 4.21247 23.2564 4.26108 23.7382 4.13493C24.22 4.00879 24.6416 3.71605 24.9281 3.30866C25.2146 2.90126 25.3476 2.40554 25.3034 1.90944C25.2592 1.41334 25.0407 0.94893 24.6866 0.598607C24.3326 0.248283 23.8659 0.03469 23.3694 -0.00427953C22.8728 -0.0432491 22.3786 0.0949242 21.9742 0.385727C21.5698 0.676531 21.2816 1.10116 21.1605 1.58429C21.0395 2.06742 21.0934 2.57782 21.3129 3.02493L14.6235 9.72461C13.9443 9.26901 13.128 9.06336 12.314 9.14279C11.5 9.22221 10.7389 9.58179 10.1606 10.1601C9.58227 10.7384 9.22269 11.4996 9.14326 12.3136C9.06384 13.1275 9.26949 13.9439 9.72509 14.6231L3.02541 21.3124C2.57655 21.0937 2.06468 21.0412 1.58076 21.1642C1.09685 21.2873 0.672224 21.5779 0.382346 21.9844C0.0924676 22.391 -0.0438903 22.8872 -0.00249758 23.3848C0.0388951 23.8823 0.255358 24.3492 0.608425 24.7022C0.961493 25.0553 1.4283 25.2717 1.92589 25.3131C2.42349 25.3545 2.91964 25.2182 3.32619 24.9283C3.73275 24.6384 4.02336 24.2138 4.1464 23.7299C4.26944 23.246 4.21694 22.7341 3.99822 22.2852L7.96166 18.3321C6.51547 21.6224 5.97104 25.2383 6.38424 28.8086C6.79745 32.3788 8.15341 35.7748 10.3129 38.6477L9.15103 39.8131C9.02298 39.9419 8.95111 40.1161 8.95111 40.2977C8.95111 40.4794 9.02298 40.6536 9.15103 40.7824L12.1657 43.7971C12.2941 43.9262 12.4684 43.9992 12.6504 43.9999C12.7411 44 12.831 43.9821 12.9147 43.9473C12.9985 43.9125 13.0746 43.8615 13.1385 43.7971L16.1567 40.7824C16.2847 40.6536 16.3566 40.4794 16.3566 40.2977C16.3566 40.1161 16.2847 39.9419 16.1567 39.8131L13.1488 36.7812ZM40.3051 10.6046L42.347 12.6465L40.3051 14.6884L38.2632 12.6465L40.3051 10.6046ZM22.6879 1.59149C22.7901 1.48849 22.9205 1.41817 23.0627 1.38943C23.2049 1.3607 23.3524 1.37485 23.4866 1.43009C23.6207 1.48533 23.7354 1.57918 23.8161 1.69971C23.8968 1.82025 23.9399 1.96205 23.9399 2.10711C23.9399 2.25218 23.8968 2.39398 23.8161 2.51451C23.7354 2.63505 23.6207 2.72889 23.4866 2.78413C23.3524 2.83938 23.2049 2.85353 23.0627 2.82479C22.9205 2.79606 22.7901 2.72573 22.6879 2.62274C22.6201 2.55506 22.5664 2.47468 22.5297 2.3862C22.493 2.29773 22.4741 2.20289 22.4741 2.10711C22.4741 2.01134 22.493 1.9165 22.5297 1.82802C22.5664 1.73955 22.6201 1.65917 22.6879 1.59149ZM11.1379 11.1374C11.3375 10.9368 11.5748 10.7777 11.8362 10.669C12.0975 10.5604 12.3777 10.5045 12.6607 10.5045C12.9437 10.5045 13.2239 10.5604 13.4853 10.669C13.7466 10.7777 13.9839 10.9368 14.1835 11.1374C14.4853 11.4387 14.6909 11.8227 14.7744 12.2409C14.8578 12.6591 14.8153 13.0927 14.6523 13.4867C14.4893 13.8807 14.213 14.2175 13.8585 14.4545C13.504 14.6915 13.0871 14.818 12.6607 14.818C12.2343 14.818 11.8174 14.6915 11.4629 14.4545C11.1084 14.2175 10.8322 13.8807 10.6691 13.4867C10.5061 13.0927 10.4636 12.6591 10.5471 12.2409C10.6305 11.8227 10.8361 11.4387 11.1379 11.1374ZM2.62666 23.7187C2.4863 23.8357 2.30724 23.896 2.12467 23.8878C1.9421 23.8796 1.76922 23.8033 1.63999 23.6741C1.51076 23.5449 1.43453 23.372 1.42628 23.1894C1.41803 23.0068 1.47836 22.8278 1.59541 22.6874C1.73298 22.5522 1.91815 22.4765 2.11103 22.4765C2.30392 22.4765 2.48908 22.5522 2.62666 22.6874C2.69442 22.7551 2.74818 22.8355 2.78486 22.924C2.82154 23.0124 2.84042 23.1073 2.84042 23.2031C2.84042 23.2988 2.82154 23.3937 2.78486 23.4821C2.74818 23.5706 2.69442 23.651 2.62666 23.7187ZM12.6607 42.3259L10.6188 40.284L12.6607 38.2421L14.7026 40.284L12.6607 42.3259Z" fill="url(#paint1_linear_1612_460)"/>
</g>
<defs>
<linearGradient id="paint0_linear_1612_460" x1="-0.284199" y1="4.75399" x2="56.1552" y2="7.49965" gradientUnits="userSpaceOnUse">
<stop stop-color="#00A3FF"/>
<stop offset="1" stop-color="#0035BC"/>
</linearGradient>
<linearGradient id="paint1_linear_1612_460" x1="-22.5843" y1="-15.0144" x2="62.2613" y2="-10.8876" gradientUnits="userSpaceOnUse">
<stop stop-color="#00A3FF"/>
<stop offset="1" stop-color="#0035BC"/>
</linearGradient>
<clipPath id="clip0_1612_460">
<rect width="44" height="44" fill="white"/>
</clipPath>
</defs>
</svg>
