<svg width="44" height="44" viewBox="0 0 44 44" fill="none" xmlns="http://www.w3.org/2000/svg">
<path d="M36.6645 14.1423L36.7777 14.0129L37.7963 12.9943L39.6394 11.1512C40.4802 10.3104 40.9491 9.19483 40.9491 8.01455C40.9491 6.83428 40.4802 5.71867 39.6394 4.87793L39.1221 4.36055C37.4406 2.67906 34.5303 2.67906 32.8488 4.36055L31.0057 6.20372L4.81326 32.3961L4.63541 32.574L2.80841 41.1916L11.426 39.3646L36.6645 14.1423ZM33.9968 5.49232C35.0639 4.44139 36.907 4.42522 37.9741 5.49232L38.5077 6.02587C39.0412 6.55942 39.3323 7.25465 39.3323 8.01455C39.3323 8.77445 39.0412 9.46968 38.5077 10.0032L36.6645 11.8464L32.1536 7.33549L33.9968 5.49232ZM31.0057 8.48343L32.6871 10.1649L8.20857 34.6435L6.52708 32.962L31.0057 8.48343ZM4.91027 39.0897L5.86419 34.595L9.40501 38.1358L4.91027 39.0897ZM11.038 37.4729L9.35651 35.7914L33.8351 11.3129L35.5166 12.9943L11.038 37.4729ZM13.4632 21.4664L2 10.0032L10.0032 2L21.4664 13.4632L17.9903 16.8585L16.8424 15.7106L19.1221 13.4309L16.8424 11.135L13.447 14.5465L12.2991 13.3985L15.6944 10.0032L13.4147 7.70736L11.1188 10.0032L9.9709 8.85529L12.2668 6.55942L9.98706 4.27971L4.26354 10.0032L14.595 20.3347L13.447 21.4664H13.4632ZM42 33.9968L33.9968 42L22.5335 30.5368L23.6815 29.405L33.9968 39.7203L39.7203 33.9968L37.4406 31.7171L34.0291 35.1124L32.8812 33.9644L36.2926 30.5529L33.9968 28.2732L31.7171 30.5529L30.5691 29.405L32.8488 27.1091L30.5529 24.8294L27.1576 28.2247L26.0097 27.0768L30.5206 22.5012L41.9838 33.9644L42 33.9968Z" fill="url(#paint0_linear_1612_415)"/>
<defs>
<linearGradient id="paint0_linear_1612_415" x1="-18.5181" y1="-11.6364" x2="58.5985" y2="-7.88541" gradientUnits="userSpaceOnUse">
<stop stop-color="#00A3FF"/>
<stop offset="1" stop-color="#0035BC"/>
</linearGradient>
</defs>
</svg>
