<svg width="44" height="44" viewBox="0 0 44 44" fill="none" xmlns="http://www.w3.org/2000/svg">
<path d="M42.2728 5.68682C41.9226 5.33399 41.5019 5.05903 41.0382 4.87991C40.5744 4.70079 40.0781 4.62154 39.5817 4.64734C39.0852 4.67314 38.5998 4.8034 38.1572 5.02962C37.7145 5.25584 37.3246 5.57293 37.0128 5.96015L28.4195 16.3602C26.7595 16.0002 25.2928 16.7402 24.2661 18.5068C23.8928 19.1468 23.6395 19.8935 23.5128 20.7268C23.3061 22.0535 22.8928 23.2002 22.2395 24.2268C22.1328 24.4002 22.1195 24.6135 22.2128 24.7935C22.3061 24.9735 22.4928 25.0868 22.6928 25.0935C22.9795 25.1068 23.2661 25.1068 23.5395 25.1068C26.8595 25.1068 29.1795 24.3202 30.4328 22.7735C31.4061 21.5668 31.4595 20.2402 31.3928 19.5202L41.9395 10.9468C42.3287 10.6383 42.649 10.2518 42.8798 9.81201C43.1106 9.37225 43.2467 8.88904 43.2795 8.39348C43.3528 7.38682 42.9795 6.40015 42.2728 5.68682ZM30.9728 15.0535L32.8261 16.9068L30.9195 18.4535L29.4128 16.9402L30.9728 15.0535ZM29.5461 22.0735C28.5461 23.3002 26.5261 23.9535 23.6795 23.9735C24.1461 23.0402 24.4595 22.0268 24.6328 20.8935C24.7395 20.2002 24.9461 19.5868 25.2461 19.0735C25.8995 17.9535 26.6995 17.3935 27.6328 17.3935C27.8595 17.3935 28.0995 17.4268 28.3461 17.4935L30.2528 19.4135C30.3195 19.8202 30.4128 21.0202 29.5461 22.0735ZM41.2461 10.0602L41.2395 10.0668L33.7061 16.1935L31.6928 14.1802L37.8928 6.68015C38.3195 6.14682 38.9528 5.82015 39.6395 5.78015C40.3261 5.74015 40.9861 6.00015 41.4661 6.48682C41.9461 6.97348 42.1995 7.64015 42.1595 8.32015C42.1195 9.00015 41.7861 9.63348 41.2461 10.0602Z" fill="url(#paint0_linear_1612_464)"/>
<path d="M19.0334 31.3397C19.3905 31.3397 19.6801 31.0502 19.6801 30.6931C19.6801 30.3359 19.3905 30.0464 19.0334 30.0464C18.6762 30.0464 18.3867 30.3359 18.3867 30.6931C18.3867 31.0502 18.6762 31.3397 19.0334 31.3397Z" fill="url(#paint1_linear_1612_464)"/>
<path d="M12.3528 8.63991C12.3528 8.48962 12.2931 8.34549 12.1868 8.23922C12.0805 8.13294 11.9364 8.07324 11.7861 8.07324H4.50612C4.35583 8.07324 4.2117 8.13294 4.10543 8.23922C3.99916 8.34549 3.93945 8.48962 3.93945 8.63991V14.3532C3.93945 14.6666 4.19279 14.9199 4.50612 14.9199H11.7861C12.0995 14.9199 12.3528 14.6666 12.3528 14.3532V8.63991ZM11.2195 13.7799H5.07279V9.19991H11.2195V13.7799ZM12.3528 17.1532C12.3528 17.003 12.2931 16.8588 12.1868 16.7525C12.0805 16.6463 11.9364 16.5866 11.7861 16.5866H4.50612C4.35583 16.5866 4.2117 16.6463 4.10543 16.7525C3.99916 16.8588 3.93945 17.003 3.93945 17.1532C3.93945 17.3035 3.99916 17.4477 4.10543 17.5539C4.2117 17.6602 4.35583 17.7199 4.50612 17.7199H11.7861C12.0995 17.7199 12.3528 17.4666 12.3528 17.1532ZM4.50612 19.1332C4.35583 19.1332 4.2117 19.1929 4.10543 19.2992C3.99916 19.4055 3.93945 19.5496 3.93945 19.6999C3.93945 19.8502 3.99916 19.9943 4.10543 20.1006C4.2117 20.2069 4.35583 20.2666 4.50612 20.2666H9.61945C9.76974 20.2666 9.91388 20.2069 10.0201 20.1006C10.1264 19.9943 10.1861 19.8502 10.1861 19.6999C10.1861 19.5496 10.1264 19.4055 10.0201 19.2992C9.91388 19.1929 9.76974 19.1332 9.61945 19.1332H4.50612ZM22.1928 17.1532C22.1928 17.003 22.1331 16.8588 22.0268 16.7525C21.9205 16.6463 21.7764 16.5866 21.6261 16.5866H14.3461C14.1958 16.5866 14.0517 16.6463 13.9454 16.7525C13.8392 16.8588 13.7795 17.003 13.7795 17.1532C13.7795 17.3035 13.8392 17.4477 13.9454 17.5539C14.0517 17.6602 14.1958 17.7199 14.3461 17.7199H21.6261C21.9395 17.7199 22.1928 17.4666 22.1928 17.1532ZM14.3461 19.1332C14.1958 19.1332 14.0517 19.1929 13.9454 19.2992C13.8392 19.4055 13.7795 19.5496 13.7795 19.6999C13.7795 19.8502 13.8392 19.9943 13.9454 20.1006C14.0517 20.2069 14.1958 20.2666 14.3461 20.2666H19.4595C19.6097 20.2666 19.7539 20.2069 19.8601 20.1006C19.9664 19.9943 20.0261 19.8502 20.0261 19.6999C20.0261 19.5496 19.9664 19.4055 19.8601 19.2992C19.7539 19.1929 19.6097 19.1332 19.4595 19.1332H14.3461ZM22.1928 8.63991C22.1928 8.48962 22.1331 8.34549 22.0268 8.23922C21.9205 8.13294 21.7764 8.07324 21.6261 8.07324H14.3461C14.1958 8.07324 14.0517 8.13294 13.9454 8.23922C13.8392 8.34549 13.7795 8.48962 13.7795 8.63991V14.3532C13.7795 14.6666 14.0328 14.9199 14.3461 14.9199H21.6261C21.9395 14.9199 22.1928 14.6666 22.1928 14.3532V8.63991ZM21.0595 13.7799H14.9128V9.19991H21.0595V13.7799Z" fill="url(#paint2_linear_1612_464)"/>
<path d="M37.3659 17.7399C37.3659 17.6655 37.3512 17.5918 37.3228 17.5231C37.2943 17.4543 37.2525 17.3919 37.1999 17.3393C37.1473 17.2866 37.0848 17.2449 37.0161 17.2164C36.9473 17.1879 36.8736 17.1733 36.7992 17.1733C36.7248 17.1733 36.6511 17.1879 36.5824 17.2164C36.5136 17.2449 36.4511 17.2866 36.3985 17.3393C36.3459 17.3919 36.3042 17.4543 36.2757 17.5231C36.2472 17.5918 36.2326 17.6655 36.2326 17.7399V27.7866H1.83255V7.98661C1.83255 6.75328 2.83255 5.74661 4.06589 5.74661H33.9926C34.2192 5.74661 34.4526 5.78661 34.7126 5.87995C35.0059 5.97995 35.3326 5.81995 35.4326 5.52661C35.5326 5.23328 35.3726 4.90661 35.0792 4.80661C34.6992 4.67995 34.3459 4.61328 33.9926 4.61328H4.06589C2.21255 4.61328 0.699219 6.12661 0.699219 7.98661V30.2133C0.699219 32.0733 2.21255 33.5866 4.06589 33.5866H14.5392L13.6726 35.6533H11.1859C10.7012 35.6663 10.2407 35.8679 9.90251 36.2153C9.56428 36.5627 9.37502 37.0284 9.37502 37.5133C9.37502 37.9981 9.56428 38.4638 9.90251 38.8112C10.2407 39.1586 10.7012 39.3603 11.1859 39.3733H26.8859C27.3706 39.3603 27.831 39.1586 28.1693 38.8112C28.5075 38.4638 28.6968 37.9981 28.6968 37.5133C28.6968 37.0284 28.5075 36.5627 28.1693 36.2153C27.831 35.8679 27.3706 35.6663 26.8859 35.6533H24.3992L23.5326 33.5866H33.9992C35.8526 33.5866 37.3659 32.0799 37.3659 30.2266V28.3533V17.7399ZM27.6126 37.5199C27.6126 37.9199 27.2859 38.2466 26.8859 38.2466H11.1859C10.7859 38.2466 10.4592 37.9199 10.4592 37.5199C10.4592 37.1199 10.7859 36.7933 11.1859 36.7933H26.8859C27.2859 36.7933 27.6126 37.1199 27.6126 37.5199ZM23.1659 35.6599H14.8992L15.7659 33.5933H22.2992L23.1659 35.6599ZM36.2326 30.2333C36.2326 31.4599 35.2326 32.4599 33.9992 32.4599H4.06589C2.83255 32.4599 1.83255 31.4533 1.83255 30.22V28.9266H36.2326V30.2333Z" fill="url(#paint3_linear_1612_464)"/>
<defs>
<linearGradient id="paint0_linear_1612_464" x1="11.3075" y1="-2.33387" x2="52.0537" y2="-0.286704" gradientUnits="userSpaceOnUse">
<stop stop-color="#00A3FF"/>
<stop offset="1" stop-color="#0035BC"/>
</linearGradient>
<linearGradient id="paint1_linear_1612_464" x1="17.7233" y1="29.6055" x2="20.2167" y2="29.7268" gradientUnits="userSpaceOnUse">
<stop stop-color="#00A3FF"/>
<stop offset="1" stop-color="#0035BC"/>
</linearGradient>
<linearGradient id="paint2_linear_1612_464" x1="-5.42366" y1="3.91642" x2="29.6645" y2="6.47132" gradientUnits="userSpaceOnUse">
<stop stop-color="#00A3FF"/>
<stop offset="1" stop-color="#0035BC"/>
</linearGradient>
<linearGradient id="paint3_linear_1612_464" x1="-18.1091" y1="-7.23672" x2="52.5624" y2="-3.61071" gradientUnits="userSpaceOnUse">
<stop stop-color="#00A3FF"/>
<stop offset="1" stop-color="#0035BC"/>
</linearGradient>
</defs>
</svg>
