<svg width="170" height="40" viewBox="0 0 170 40" fill="none" xmlns="http://www.w3.org/2000/svg">
<g clip-path="url(#clip0_233_58)">
<path d="M32.5495 0H7.45047C3.33569 0 0 3.33569 0 7.45047V32.5495C0 36.6643 3.33569 40 7.45047 40H32.5495C36.6643 40 40 36.6643 40 32.5495V7.45047C40 3.33569 36.6643 0 32.5495 0Z" fill="url(#paint0_linear_233_58)"/>
<path d="M20.1364 23.5205H13.1211L6.49561 16.3104L13.1211 9.09375H20.1364L13.4784 16.3104L20.1364 23.5205Z" fill="url(#paint1_linear_233_58)"/>
<mask id="mask0_233_58" style="mask-type:alpha" maskUnits="userSpaceOnUse" x="6" y="9" width="15" height="15">
<path d="M20.1364 23.5205H13.1211L6.49561 16.3104L13.1211 9.09375H20.1364L13.4784 16.3104L20.1364 23.5205Z" fill="url(#paint2_linear_233_58)"/>
</mask>
<g mask="url(#mask0_233_58)">
<path d="M18.2268 6.49561L9.93835 16.2845L17.2849 24.8067" fill="url(#paint3_linear_233_58)"/>
<path d="M18.2268 6.49561L9.93835 16.2845L17.2849 24.8067" stroke="white" stroke-miterlimit="10"/>
</g>
<path d="M20.1364 30.6658H27.1517L33.7772 23.4556L27.1517 16.239H20.1364L26.7944 23.4556L20.1364 30.6658Z" fill="url(#paint4_linear_233_58)"/>
<mask id="mask1_233_58" style="mask-type:alpha" maskUnits="userSpaceOnUse" x="20" y="16" width="14" height="15">
<path d="M20.1364 30.6658H27.1517L33.7772 23.4556L27.1517 16.239H20.1364L26.7944 23.4556L20.1364 30.6658Z" fill="black"/>
</mask>
<g mask="url(#mask1_233_58)">
<path d="M22.0461 13.6409L30.3345 23.4298L22.9879 31.952" stroke="url(#paint5_linear_233_58)" stroke-miterlimit="10"/>
</g>
</g>
<path d="M55.6133 28V13.7266H50.5156V10.8203H64.168V13.7266H59.082V28H55.6133ZM72.7803 24.0391L76.0616 24.5898C75.6397 25.793 74.9717 26.7109 74.0577 27.3438C73.1514 27.9688 72.0147 28.2812 70.6475 28.2812C68.4834 28.2812 66.8819 27.5742 65.8428 26.1602C65.0225 25.0273 64.6123 23.5977 64.6123 21.8711C64.6123 19.8086 65.1514 18.1953 66.2295 17.0312C67.3077 15.8594 68.6709 15.2734 70.3194 15.2734C72.1709 15.2734 73.6319 15.8867 74.7022 17.1133C75.7725 18.332 76.2842 20.2031 76.2373 22.7266H67.9873C68.0108 23.7031 68.2764 24.4648 68.7842 25.0117C69.292 25.5508 69.9248 25.8203 70.6827 25.8203C71.1983 25.8203 71.6319 25.6797 71.9834 25.3984C72.335 25.1172 72.6006 24.6641 72.7803 24.0391ZM72.9678 20.7109C72.9444 19.7578 72.6983 19.0352 72.2295 18.543C71.7608 18.043 71.1905 17.793 70.5186 17.793C69.7998 17.793 69.2061 18.0547 68.7373 18.5781C68.2686 19.1016 68.0381 19.8125 68.0459 20.7109H72.9678ZM90.7442 19.2344L87.4981 19.8203C87.3888 19.1719 87.1388 18.6836 86.7481 18.3555C86.3653 18.0273 85.8653 17.8633 85.2481 17.8633C84.4278 17.8633 83.7716 18.1484 83.2794 18.7188C82.795 19.2812 82.5528 20.2266 82.5528 21.5547C82.5528 23.0312 82.7989 24.0742 83.2911 24.6836C83.7911 25.293 84.4591 25.5977 85.295 25.5977C85.92 25.5977 86.4317 25.4219 86.8302 25.0703C87.2286 24.7109 87.5098 24.0977 87.6739 23.2305L90.9083 23.7812C90.5723 25.2656 89.9278 26.3867 88.9747 27.1445C88.0216 27.9023 86.7442 28.2812 85.1427 28.2812C83.3223 28.2812 81.8692 27.707 80.7833 26.5586C79.7052 25.4102 79.1661 23.8203 79.1661 21.7891C79.1661 19.7344 79.7091 18.1367 80.795 16.9961C81.8809 15.8477 83.3497 15.2734 85.2013 15.2734C86.7169 15.2734 87.92 15.6016 88.8106 16.2578C89.7091 16.9062 90.3536 17.8984 90.7442 19.2344ZM97.4933 10.8203V17.1367C98.5558 15.8945 99.8253 15.2734 101.302 15.2734C102.06 15.2734 102.743 15.4141 103.353 15.6953C103.962 15.9766 104.419 16.3359 104.724 16.7734C105.036 17.2109 105.247 17.6953 105.357 18.2266C105.474 18.7578 105.532 19.582 105.532 20.6992V28H102.239V21.4258C102.239 20.1211 102.177 19.293 102.052 18.9414C101.927 18.5898 101.704 18.3125 101.384 18.1094C101.071 17.8984 100.677 17.793 100.2 17.793C99.6534 17.793 99.1652 17.9258 98.7355 18.1914C98.3058 18.457 97.9894 18.8594 97.7863 19.3984C97.5909 19.9297 97.4933 20.7188 97.4933 21.7656V28H94.2003V10.8203H97.4933ZM117.53 28V10.8203H129.308V13.7266H120.999V17.793H128.171V20.6992H120.999V28H117.53ZM133.115 28V10.8203H136.408V28H133.115ZM148.947 28V26.1367C148.493 26.8008 147.896 27.3242 147.154 27.707C146.419 28.0898 145.642 28.2812 144.822 28.2812C143.986 28.2812 143.236 28.0977 142.572 27.7305C141.908 27.3633 141.427 26.8477 141.13 26.1836C140.833 25.5195 140.685 24.6016 140.685 23.4297V15.5547H143.978V21.2734C143.978 23.0234 144.036 24.0977 144.154 24.4961C144.279 24.8867 144.501 25.1992 144.822 25.4336C145.142 25.6602 145.548 25.7734 146.04 25.7734C146.603 25.7734 147.107 25.6211 147.552 25.3164C147.997 25.0039 148.302 24.6211 148.466 24.168C148.63 23.707 148.712 22.5859 148.712 20.8047V15.5547H152.005V28H148.947ZM154.805 28L159.293 21.5898L154.993 15.5547H159.012L161.215 18.9766L163.535 15.5547H167.403L163.184 21.4492L167.789 28H163.746L161.215 24.1445L158.66 28H154.805Z" fill="white"/>
<defs>
<linearGradient id="paint0_linear_233_58" x1="-7.28808" y1="-23.2348" x2="56.0442" y2="77.1159" gradientUnits="userSpaceOnUse">
<stop stop-color="#95D221"/>
<stop offset="0.0001" stop-color="#89CD09"/>
<stop offset="0.0572917" stop-color="#88C90D"/>
<stop offset="0.328125" stop-color="#96D322"/>
<stop offset="0.598958" stop-color="#AEE347"/>
<stop offset="1" stop-color="#BAF24E"/>
</linearGradient>
<linearGradient id="paint1_linear_233_58" x1="13.316" y1="9.09375" x2="13.316" y2="23.5205" gradientUnits="userSpaceOnUse">
<stop/>
<stop offset="1" stop-opacity="0"/>
</linearGradient>
<linearGradient id="paint2_linear_233_58" x1="13.316" y1="9.09375" x2="13.316" y2="23.5205" gradientUnits="userSpaceOnUse">
<stop/>
<stop offset="1" stop-opacity="0"/>
</linearGradient>
<linearGradient id="paint3_linear_233_58" x1="14.0826" y1="6.49561" x2="14.0826" y2="24.8067" gradientUnits="userSpaceOnUse">
<stop/>
<stop offset="1" stop-opacity="0"/>
</linearGradient>
<linearGradient id="paint4_linear_233_58" x1="26.9568" y1="16.239" x2="26.9568" y2="30.6658" gradientUnits="userSpaceOnUse">
<stop stop-color="#161010" stop-opacity="0"/>
<stop offset="1" stop-color="#161010"/>
</linearGradient>
<linearGradient id="paint5_linear_233_58" x1="26.1903" y1="13.6409" x2="26.1903" y2="31.952" gradientUnits="userSpaceOnUse">
<stop stop-color="white" stop-opacity="0"/>
<stop offset="1" stop-color="white"/>
</linearGradient>
<clipPath id="clip0_233_58">
<rect width="40" height="40" fill="white"/>
</clipPath>
</defs>
</svg>
