<svg width="16" height="16" viewBox="0 0 16 16" fill="none" xmlns="http://www.w3.org/2000/svg">
<g clip-path="url(#clip0_1971_383)">
<path d="M6 0.27781C6.09761 0.396423 6.15741 0.541582 6.17168 0.694533C6.18594 0.847483 6.154 1.0012 6.08 1.13581C5.50186 2.19728 5.19993 3.3871 5.202 4.59581C5.202 8.61681 8.48 11.8728 12.52 11.8728C13.047 11.8728 13.56 11.8178 14.053 11.7128C14.2041 11.6801 14.3615 11.6926 14.5056 11.7488C14.6497 11.805 14.774 11.9024 14.863 12.0288C14.957 12.1603 15.0049 12.3191 14.9993 12.4806C14.9937 12.6421 14.9349 12.7972 14.832 12.9218C14.0477 13.8852 13.0582 14.6615 11.9358 15.194C10.8134 15.7265 9.58632 16.0018 8.344 15.9998C3.734 15.9998 0 12.2858 0 7.70981C0 4.26581 2.114 1.31181 5.124 0.0598102C5.27394 -0.00355793 5.44039 -0.016564 5.59835 0.0227459C5.75631 0.0620557 5.89725 0.151559 6 0.27781Z" fill="#EDE300"/>
<path d="M10.7948 3.14797C10.8091 3.10466 10.8367 3.06698 10.8737 3.04027C10.9107 3.01356 10.9552 2.99918 11.0008 2.99918C11.0464 2.99918 11.0909 3.01356 11.1278 3.04027C11.1648 3.06698 11.1924 3.10466 11.2068 3.14797L11.5938 4.30997C11.7668 4.82797 12.1728 5.23397 12.6908 5.40697L13.8528 5.79397C13.8961 5.80831 13.9338 5.83593 13.9605 5.87291C13.9872 5.90989 14.0016 5.95435 14.0016 5.99997C14.0016 6.04559 13.9872 6.09004 13.9605 6.12702C13.9338 6.164 13.8961 6.19163 13.8528 6.20597L12.6908 6.59297C12.4353 6.67808 12.2032 6.82153 12.0128 7.01194C11.8224 7.20235 11.6789 7.43449 11.5938 7.68997L11.2068 8.85197C11.1924 8.89527 11.1648 8.93296 11.1278 8.95967C11.0909 8.98638 11.0464 9.00075 11.0008 9.00075C10.9552 9.00075 10.9107 8.98638 10.8737 8.95967C10.8367 8.93296 10.8091 8.89527 10.7948 8.85197L10.4078 7.68997C10.3227 7.43449 10.1792 7.20235 9.98881 7.01194C9.7984 6.82153 9.56626 6.67808 9.31079 6.59297L8.14879 6.20597C8.10548 6.19163 8.0678 6.164 8.04109 6.12702C8.01438 6.09004 8 6.04559 8 5.99997C8 5.95435 8.01438 5.90989 8.04109 5.87291C8.0678 5.83593 8.10548 5.80831 8.14879 5.79397L9.31079 5.40697C9.56626 5.32185 9.7984 5.1784 9.98881 4.98799C10.1792 4.79758 10.3227 4.56544 10.4078 4.30997L10.7948 3.14797ZM13.8638 0.0989675C13.8737 0.0704938 13.8922 0.0458034 13.9167 0.0283291C13.9413 0.0108548 13.9707 0.00146484 14.0008 0.00146484C14.0309 0.00146484 14.0603 0.0108548 14.0849 0.0283291C14.1094 0.0458034 14.1279 0.0704938 14.1378 0.0989675L14.3958 0.872967C14.5108 1.21897 14.7818 1.48997 15.1278 1.60497L15.9018 1.86297C15.9303 1.87284 15.955 1.89134 15.9724 1.91589C15.9899 1.94044 15.9993 1.96983 15.9993 1.99997C15.9993 2.0301 15.9899 2.05949 15.9724 2.08404C15.955 2.1086 15.9303 2.1271 15.9018 2.13697L15.1278 2.39497C14.9573 2.45169 14.8023 2.54738 14.6753 2.67445C14.5482 2.80152 14.4525 2.95646 14.3958 3.12697L14.1378 3.90097C14.1279 3.92944 14.1094 3.95413 14.0849 3.97161C14.0603 3.98908 14.0309 3.99847 14.0008 3.99847C13.9707 3.99847 13.9413 3.98908 13.9167 3.97161C13.8922 3.95413 13.8737 3.92944 13.8638 3.90097L13.6058 3.12697C13.5491 2.95646 13.4534 2.80152 13.3263 2.67445C13.1992 2.54738 13.0443 2.45169 12.8738 2.39497L12.0998 2.13697C12.0713 2.1271 12.0466 2.1086 12.0291 2.08404C12.0117 2.05949 12.0023 2.0301 12.0023 1.99997C12.0023 1.96983 12.0117 1.94044 12.0291 1.91589C12.0466 1.89134 12.0713 1.87284 12.0998 1.86297L12.8738 1.60497C13.2198 1.48997 13.4908 1.21897 13.6058 0.872967L13.8638 0.0999675V0.0989675Z" fill="#EDE300"/>
</g>
<defs>
<clipPath id="clip0_1971_383">
<rect width="16" height="16" fill="white"/>
</clipPath>
</defs>
</svg>
