<svg width="85" height="84" viewBox="0 0 85 84" fill="none" xmlns="http://www.w3.org/2000/svg">
<path d="M10.2715 22.2577L47.7323 4.78943C53.4118 2.14104 60.1449 4.59172 62.7934 10.2713L79.5854 46.282C82.2338 51.9615 79.7832 58.6948 74.1036 61.3432L36.643 78.8114C30.9633 81.4597 24.2301 79.0091 21.5817 73.3294L4.78969 37.3189C2.14125 31.6393 4.59192 24.9061 10.2715 22.2577Z" fill="#001834"/>
<path d="M31.5441 60.6218L19.9475 35.7527C19.8686 35.5836 19.896 35.453 20.0651 35.3741C20.476 35.1825 20.8627 35.0022 21.4073 34.7189C21.9761 34.4243 22.5803 34.1425 23.2215 33.814C23.8628 33.4855 24.5637 33.1587 25.3016 32.7852C26.0395 32.4117 26.7646 32.0736 27.4896 31.7355C29.4714 30.8114 31.2275 30.2867 32.8176 30.1631C34.2177 30.0105 35.6449 30.1687 36.9803 30.6346C38.1144 31.0474 39.1581 31.7082 40.0293 32.5671C40.8652 33.4132 41.5432 34.3622 42.0503 35.4498C43.0195 37.5283 43.3362 39.4695 43.0007 41.2738C42.6651 43.078 41.785 44.7242 40.4845 46.0368C39.1227 47.4073 37.4116 48.4701 35.4298 49.3942C34.8498 49.6647 34.4631 49.845 34.2101 49.9336C33.9572 50.0221 33.6188 50.1799 33.1597 50.394L36.7773 58.152C36.8803 58.3099 36.8271 58.5112 36.6692 58.6144L31.9806 60.8007C31.7872 60.8909 31.6455 60.8393 31.5441 60.6218ZM27.2673 37.6945L31.054 45.815C31.4036 45.6814 31.7291 45.5591 32.0191 45.4239L33.3 44.8266C34.9689 44.0484 36.7134 42.7574 37.261 40.8906C37.7322 39.2839 36.6816 37.0234 35.2905 36.1601C33.6392 35.1353 31.5126 35.607 29.8791 36.4179C29.2507 36.7109 28.6949 36.9701 28.2469 37.2084C27.7523 37.4095 27.4251 37.5914 27.2673 37.6945ZM58.4499 31.2452C57.5445 31.1966 56.6471 31.2914 55.7466 31.5054C54.7622 31.729 53.8116 32.0252 52.8933 32.4535C52.3986 32.6547 51.9249 32.9639 51.5221 33.2988C51.2417 33.5178 51.0547 33.8109 50.9983 34.1315C50.9676 34.3813 51.0078 34.6567 51.1092 34.8742C51.2106 35.0918 51.4087 35.2642 51.6439 35.39C51.9854 35.5544 52.3768 35.6367 52.7698 35.6594C53.461 35.6902 54.165 35.6856 54.8577 35.6567C56.3657 35.4832 57.9041 35.5013 59.4023 35.6854C60.4365 35.8211 61.4046 36.1935 62.2469 36.8011C62.9942 37.3943 63.582 38.1499 63.9636 39.0312C64.5175 40.1559 64.7088 41.4495 64.5199 42.6851C64.294 43.9673 63.7009 45.1561 62.8162 46.0983C61.8686 47.158 60.5425 48.1001 58.8024 48.9115C57.6907 49.4299 56.5581 49.8404 55.3691 50.13C54.448 50.3802 53.4977 50.5067 52.5433 50.5061C52.3291 50.4884 52.1293 50.3755 52.0633 50.171L50.1023 45.9657C50.0685 45.8932 50.0476 45.7853 50.0975 45.7031C50.1475 45.6209 50.2313 45.6114 50.3263 45.6258C51.5281 45.7422 52.6993 45.6668 53.8753 45.4126C54.9064 45.226 55.9295 44.8961 56.8962 44.4453C57.8146 44.017 58.4108 43.5919 58.7444 43.1715C59.0522 42.8221 59.1264 42.2872 58.9236 41.8521C58.7658 41.5138 58.4259 41.2898 57.8928 41.1559C57.3596 41.0221 56.393 41.0315 54.9946 41.1244C53.5591 41.2642 52.1527 41.2138 50.7513 40.9846C49.7542 40.8023 48.7989 40.3944 47.9566 39.7869C47.2093 39.1937 46.6215 38.4381 46.2512 37.5809C45.7666 36.5417 45.5945 35.4156 45.7092 34.2735C45.8626 33.025 46.3963 31.8346 47.2101 30.8666C48.0755 29.7569 49.3774 28.8261 51.0934 28.0259C52.0843 27.5638 53.1332 27.163 54.1916 26.846C54.9617 26.6045 55.7528 26.4711 56.5294 26.4327C56.6372 26.4118 56.7791 26.4634 56.8724 26.5375C56.9416 26.6229 57.011 26.7083 57.056 26.805L58.893 30.7444C58.9381 30.841 58.9348 30.9603 58.8848 31.0424C58.69 31.1921 58.5691 31.2485 58.4499 31.2452Z" fill="#00A9FF"/>
</svg>
