<svg width="72" height="73" viewBox="0 0 72 73" fill="none" xmlns="http://www.w3.org/2000/svg">
<g id="Frame">
<g id="Group">
<path id="Vector" d="M60.8764 58.3244C64.6821 58.3244 67.7781 55.2387 67.7781 51.433V10.5679C67.7781 6.99872 64.8775 4.09814 61.3084 4.09814H10.6924C7.12323 4.09814 4.22266 6.99872 4.22266 10.5679V51.433C4.22266 55.2387 7.31866 58.3244 11.1244 58.3244H26.9078V62.2813H25.0564C24.2434 62.28 23.4631 62.6016 22.8871 63.1754C22.3112 63.7492 21.9867 64.5283 21.9851 65.3413V67.6474C21.9851 68.3376 22.5487 68.9023 23.2389 68.9023H48.768C49.4582 68.9023 50.0229 68.3376 50.0229 67.6474V65.3413C50.0221 64.9387 49.942 64.5401 49.7871 64.1684C49.6323 63.7967 49.4058 63.4592 49.1205 63.175C48.8352 62.8909 48.4967 62.6657 48.1244 62.5124C47.7521 62.359 47.3532 62.2805 46.9505 62.2813H45.0919V58.3244H60.8764ZM36.0055 54.9816C35.0284 54.9816 34.2364 54.1999 34.2364 53.2227C34.2364 52.2353 35.0284 51.4433 36.0055 51.4433C36.9724 51.4433 37.7644 52.2353 37.7644 53.2227C37.7644 54.1999 36.9724 54.9816 36.0055 54.9816ZM6.2798 48.1313V10.5679C6.2798 8.14043 8.26494 6.15529 10.6924 6.15529H61.3084C63.7358 6.15529 65.7209 8.14043 65.7209 10.5679V48.1313H6.2798Z" fill="#F3F3F3"/>
<path id="Vector_2" d="M54.447 14.281C53.1613 14.281 52.0813 15.0833 51.6596 16.225H39.0493C38.6276 15.0833 37.5373 14.281 36.2619 14.281C34.9864 14.281 33.9064 15.0833 33.4847 16.225H20.3396C20.0997 15.5702 19.6367 15.0209 19.0319 14.6736C18.4272 14.3264 17.7195 14.2033 17.033 14.3261C16.3466 14.4489 15.7254 14.8097 15.2786 15.3451C14.8317 15.8805 14.5879 16.5562 14.5899 17.2535C14.5899 18.0392 14.902 18.7927 15.4575 19.3482C16.013 19.9037 16.7665 20.2158 17.5521 20.2158C18.8379 20.2158 19.9179 19.4135 20.3396 18.2821H27.7041C22.3247 21.1313 18.5807 26.6753 18.2721 33.1141H17.6139C17.0276 33.1141 16.5441 33.5873 16.5441 34.1838V37.5164C16.5441 38.1027 17.0276 38.5861 17.6139 38.5861H20.9567C21.543 38.5861 22.0264 38.1027 22.0264 37.5164V34.1838C22.0264 33.5873 21.543 33.1141 20.9567 33.1141H20.3293C20.7304 25.6775 26.3464 19.5987 33.5567 18.4775C33.8756 19.1564 34.4207 19.6913 35.1098 19.9895C35.0996 20.0101 35.0893 20.0204 35.079 20.041L27.4984 35.2021C27.3236 35.5621 27.3647 36.0044 27.6321 36.313C27.8893 36.6318 28.311 36.7655 28.7019 36.6524L36.0047 34.5747L43.2973 36.6524C43.7797 36.7604 44.1356 36.6061 44.367 36.313C44.6344 36.0044 44.6859 35.5621 44.5007 35.2021L36.9613 20.1233C37.8253 19.9278 38.5453 19.3415 38.9259 18.5598C45.9099 19.8867 51.2687 25.8421 51.6596 33.1141H51.0424C50.4561 33.1141 49.9727 33.5873 49.9727 34.1838V37.5164C49.9727 38.1027 50.4561 38.5861 51.0424 38.5861H54.3853C54.9716 38.5861 55.455 38.1027 55.455 37.5164V34.1838C55.455 33.5873 54.9716 33.1141 54.3853 33.1141H53.7167C53.4081 26.6753 49.6641 21.1313 44.2847 18.2821H51.6596C52.0813 19.4135 53.1613 20.2158 54.447 20.2158C54.836 20.2158 55.2212 20.1392 55.5806 19.9903C55.94 19.8415 56.2666 19.6233 56.5416 19.3482C56.8167 19.0731 57.0349 18.7466 57.1838 18.3872C57.3327 18.0278 57.4093 17.6426 57.4093 17.2535C57.4093 15.6078 56.0824 14.281 54.447 14.281Z" fill="#F3F3F3"/>
</g>
</g>
</svg>
