<svg width="72" height="72" viewBox="0 0 72 72" fill="none" xmlns="http://www.w3.org/2000/svg">
<g id="Frame">
<g id="Group">
<path id="Vector" d="M60.8764 57.8244C64.6821 57.8244 67.7781 54.7387 67.7781 50.933V10.0679C67.7781 6.49872 64.8775 3.59814 61.3084 3.59814H10.6924C7.12323 3.59814 4.22266 6.49872 4.22266 10.0679V50.933C4.22266 54.7387 7.31866 57.8244 11.1244 57.8244H26.9078V61.7813H25.0564C24.2434 61.78 23.4631 62.1016 22.8871 62.6754C22.3112 63.2492 21.9867 64.0283 21.9851 64.8413V67.1474C21.9851 67.8376 22.5487 68.4023 23.2389 68.4023H48.768C49.4582 68.4023 50.0229 67.8376 50.0229 67.1474V64.8413C50.0221 64.4387 49.942 64.0401 49.7871 63.6684C49.6323 63.2967 49.4058 62.9592 49.1205 62.675C48.8352 62.3909 48.4967 62.1657 48.1244 62.0124C47.7521 61.859 47.3532 61.7805 46.9505 61.7813H45.0919V57.8244H60.8764ZM36.0055 54.4816C35.0284 54.4816 34.2364 53.6999 34.2364 52.7227C34.2364 51.7353 35.0284 50.9433 36.0055 50.9433C36.9724 50.9433 37.7644 51.7353 37.7644 52.7227C37.7644 53.6999 36.9724 54.4816 36.0055 54.4816ZM6.2798 47.6313V10.0679C6.2798 7.64043 8.26494 5.65529 10.6924 5.65529H61.3084C63.7358 5.65529 65.7209 7.64043 65.7209 10.0679V47.6313H6.2798Z" fill="#F3F3F3"/>
<path id="Vector_2" d="M28.1217 35.622C27.9211 35.6227 27.7224 35.5834 27.5371 35.5066C27.3518 35.4297 27.1836 35.3168 27.0423 35.1744L21.4471 29.5792C21.1592 29.2923 21 28.9088 21 28.5003C21 28.0918 21.1592 27.7083 21.4477 27.4208L27.0428 21.8257C27.1841 21.6834 27.3522 21.5706 27.5374 21.4939C27.7226 21.4171 27.9212 21.3779 28.1217 21.3786C28.9631 21.3786 29.6478 22.0633 29.6478 22.9046C29.6478 23.3131 29.4886 23.6967 29.2002 23.9841L24.684 28.5003L29.2007 33.017C29.4891 33.3039 29.6478 33.6875 29.6478 34.0959C29.6478 34.9373 28.9631 35.622 28.1217 35.622ZM44.4 36.1307C43.5586 36.1307 42.8739 35.446 42.8739 34.6046C42.8739 34.1962 43.0331 33.8126 43.3216 33.5252L47.8378 29.009L43.3211 24.4923C43.1789 24.3509 43.0662 24.1828 42.9895 23.9976C42.9127 23.8124 42.8734 23.6138 42.8739 23.4133C42.8739 22.572 43.5586 21.8872 44.4 21.8872C44.8085 21.8872 45.192 22.0465 45.4794 22.3349L51.0746 27.93C51.363 28.218 51.5217 28.6015 51.5217 29.009C51.5217 29.4175 51.3625 29.801 51.0741 30.0884L45.4789 35.6836C45.3377 35.826 45.1696 35.9388 44.9844 36.0156C44.7992 36.0924 44.6005 36.1315 44.4 36.1307ZM31.6826 40.2003C31.4314 40.1999 31.1842 40.1376 30.9629 40.0189C30.7415 39.9002 30.5529 39.7288 30.4135 39.5198C30.2742 39.3108 30.1886 39.0707 30.1641 38.8208C30.1397 38.5708 30.1773 38.3187 30.2735 38.0867L39.4305 17.7378C39.5465 17.4599 39.7422 17.2226 39.9928 17.0557C40.2435 16.8889 40.538 16.8 40.8391 16.8003C41.0903 16.8007 41.3375 16.863 41.5588 16.9817C41.7802 17.1004 41.9689 17.2718 42.1082 17.4808C42.2475 17.6897 42.3332 17.9298 42.3576 18.1798C42.382 18.4298 42.3444 18.6819 42.2482 18.9139L33.0912 39.2628C32.9752 39.5407 32.7796 39.778 32.5289 39.9449C32.2782 40.1117 31.9837 40.2006 31.6826 40.2003Z" fill="#F3F3F3"/>
</g>
</g>
</svg>
