



<svg width="2497" height="800" viewBox="0 0 2497 800" fill="none" xmlns="http://www.w3.org/2000/svg">


<g clip-path="url(#clip0_1533_338)">
<path d="M0 0.000118345C32.4201 0.000118345 32.4201 0.000118256 42.875 1.62512C44.1022 1.80333 45.3294 1.98154 46.5938 2.16516C114.194 12.3362 177.62 36.4125 238.71 66.3868C241.628 67.8175 244.549 69.2381 247.473 70.6564C260.283 76.9155 272.647 83.8883 285 91.0001C287.178 92.2478 289.357 93.4951 291.535 94.7423C301.41 100.407 311.255 106.114 321 112C339.674 123.27 358.618 134.028 377.852 144.313C381.177 146.095 384.495 147.89 387.812 149.688C465.568 191.731 557.413 238.979 703.1 217.003C764.589 198.503 824.196 169.974 879.742 138.004C885.09 134.929 890.508 131.991 895.938 129.063C903.567 124.935 911.087 120.651 918.562 116.25C981.263 79.4348 1047.03 48.1569 1116 25.0001C1117.67 24.4403 1117.67 24.4403 1119.36 23.8693C1149.08 14.017 1179.98 6.3163 1211 2.00012C1212.87 1.72627 1212.87 1.72627 1214.78 1.4469C1226.88 -0.224493 1238.92 -0.399728 1251.12 -0.374882C1252.18 -0.374005 1253.24 -0.373129 1254.32 -0.372227C1272.21 -0.32346 1289.38 0.773495 1307 4.00012C1307.66 4.11891 1308.33 4.23771 1309.01 4.3601C1382.33 17.5146 1453.51 46.0618 1518.28 82.4757C1521.15 84.0852 1524.04 85.6728 1526.92 87.2579C1538.04 93.3888 1548.99 99.746 1559.81 106.375C1573.71 114.885 1587.79 123.027 1602 131C1602.59 131.331 1603.18 131.663 1603.79 132.004C1621.68 142.05 1639.75 151.713 1658.04 161.006C1660.07 162.035 1662.09 163.067 1664.12 164.099C1694.76 179.713 1725.93 193.594 1758 206C1759.13 206.438 1760.26 206.877 1761.42 207.328C1836.98 236.4 1904.93 234.054 1981 207C1981.65 206.771 1982.29 206.543 1982.96 206.307C2014.57 195.106 2044.96 180.838 2075 166C2076.2 165.409 2077.41 164.818 2078.61 164.227C2093.29 157.008 2107.82 149.557 2122.12 141.601C2125.25 139.862 2128.38 138.136 2131.52 136.41C2142.38 130.421 2153.18 124.352 2163.88 118.063C2186.18 104.959 2208.95 92.7465 2232 81.0001C2232.74 80.6198 2233.49 80.2396 2234.25 79.8478C2238.03 77.9205 2241.83 76.028 2245.64 74.1613C2247.41 73.2896 2249.18 72.4132 2250.95 71.5343C2318.4 38.1052 2391.1 11.0983 2466 1.06262C2466.84 0.946039 2467.68 0.829459 2468.54 0.709347C2478.09 -0.423903 2487.23 0.000118345 2497 0.000118345C2497 264 2497 528 2497 800C1672.99 800 848.98 800 0 800C0 536 0 272 0 0.000118345Z" fill="url(#paint0_linear_1533_338)"/>
</g>
<defs>
<linearGradient id="paint0_linear_1533_338" x1="1248" y1="-101" x2="1248" y2="961.5" gradientUnits="userSpaceOnUse">
<stop stop-color="#0572e7" stop-opacity="0.25"/>
<stop offset="1" stop-color="#0572e7" stop-opacity="0"/>
</linearGradient>
<clipPath id="clip0_1533_338">
<rect width="2497" height="800" fill="white"/>
</clipPath>
</defs>
</svg>
