<svg width="86" height="86" viewBox="0 0 86 86" fill="none" xmlns="http://www.w3.org/2000/svg">
<g clip-path="url(#clip0_1520_350)">
<path d="M10.6094 22.9828L48.0701 5.51456C53.7429 2.8693 60.486 5.3236 63.1313 10.9964L79.9233 47.0071C82.5686 52.6798 80.1143 59.423 74.4415 62.0682L36.9808 79.5364C31.308 82.1817 24.5649 79.7274 21.9196 74.0546L5.12756 38.0439C2.4823 32.3712 4.9366 25.628 10.6094 22.9828Z" fill="#470137"/>
<path d="M37.7646 28.4264L36.0975 43.7469L49.7558 52.821C49.8469 52.8867 49.9095 52.9845 49.9309 53.0947C49.9472 53.1981 49.8299 53.1828 49.6862 53.281L44.161 55.8575C43.7717 56.039 43.493 56.1523 43.2163 55.9652C42.2305 55.1997 41.2429 54.4364 40.2537 53.6755C39.24 52.8978 38.2139 52.1365 37.1757 51.3921C36.1007 50.6214 35.0335 49.8399 33.9744 49.0477L33.9354 49.0658C33.8998 50.3552 33.8453 51.644 33.7721 52.9317C33.6985 54.2197 33.6281 55.5079 33.5609 56.7962C33.4941 58.0754 33.4112 59.3538 33.3122 60.6309C33.317 60.9129 33.1464 61.0217 32.8873 61.1425L27.5566 63.6283C27.4531 63.6765 27.4139 63.7446 27.3521 63.6469C27.2932 63.5589 27.2688 63.4522 27.2835 63.3473L29.0414 47.5108L15.9563 38.5483C15.8303 38.4813 15.7781 38.403 15.7995 38.3136C15.8127 38.267 15.8366 38.2241 15.8693 38.1884C15.902 38.1526 15.9425 38.1249 15.9877 38.1074L21.474 35.5491C21.5906 35.4867 21.7195 35.4509 21.8515 35.4442C21.9691 35.4535 22.0831 35.4895 22.1848 35.5493C23.1552 36.3848 24.1587 37.1812 25.1928 37.9364C26.2398 38.7031 27.2948 39.4586 28.3578 40.203C29.4044 40.9357 30.4213 41.71 31.4061 42.5239L31.445 42.5058C31.467 41.2226 31.5084 39.9399 31.5694 38.658C31.6291 37.3986 31.699 36.1264 31.7792 34.8415C31.8583 33.5732 31.9218 32.3039 31.9697 31.034C31.9548 30.924 31.9678 30.8121 32.0075 30.7085C32.0809 30.615 32.1794 30.5444 32.2915 30.5049L37.3888 28.128C37.4396 28.0871 37.5046 28.068 37.5695 28.075C37.6344 28.082 37.6938 28.1144 37.7348 28.1652C37.7639 28.2015 37.7821 28.2452 37.7874 28.2915C37.7927 28.3377 37.7848 28.3845 37.7646 28.4264ZM60.8161 48.7058C59.0378 49.5682 57.0897 50.0234 55.1134 50.0385C53.2683 50.0438 51.465 49.4888 49.9422 48.4469C48.3767 47.3931 47.0799 45.7634 46.0518 43.558C45.2044 41.7789 44.8409 39.8079 44.9978 37.8437C45.1678 35.8382 45.8991 33.9211 47.1081 32.3119C48.3585 30.5919 50.1771 29.1754 52.5639 28.0624C52.6934 28.0021 52.865 27.9299 53.0788 27.8461C53.2923 27.7628 53.5479 27.6672 53.8453 27.5597L50.2708 19.8942C50.1864 19.7131 50.2218 19.5855 50.3774 19.5129L55.2801 17.2268C55.3097 17.2075 55.3434 17.1953 55.3785 17.1913C55.4136 17.1872 55.4492 17.1914 55.4824 17.2035C55.5156 17.2156 55.5456 17.2353 55.5699 17.2609C55.5942 17.2866 55.6122 17.3176 55.6225 17.3514L66.3458 40.3478C66.5516 40.7891 66.795 41.26 67.0755 41.7603C67.3566 42.2613 67.6068 42.7132 67.826 43.1157C67.8685 43.1943 67.8862 43.2839 67.8769 43.3728C67.8676 43.4617 67.8317 43.5456 67.7739 43.6138C66.7551 44.731 65.6202 45.7367 64.3884 46.6136C63.2621 47.4157 62.0666 48.1158 60.8161 48.7058ZM60.9398 42.774L55.9863 32.1514C55.7494 32.1925 55.5165 32.2535 55.2899 32.334C55.0124 32.4309 54.7401 32.5421 54.474 32.6671C53.5254 33.098 52.6917 33.7464 52.0406 34.5597C51.4073 35.3539 50.991 36.2988 50.8324 37.3022C50.6633 38.3284 50.8752 39.477 51.4681 40.7482C51.8447 41.6052 52.377 42.3849 53.0378 43.0479C53.5727 43.581 54.2168 43.9918 54.9258 44.2519C55.596 44.4829 56.3107 44.555 57.0135 44.4627C57.7584 44.3705 58.4839 44.1601 59.1626 43.8394C59.5255 43.6702 59.8567 43.4999 60.1561 43.3288C60.436 43.1718 60.6986 42.9859 60.9398 42.774Z" fill="#FF61F6"/>
</g>
<defs>
<clipPath id="clip0_1520_350">
<rect width="64" height="64" fill="white" transform="translate(0 27.0474) rotate(-25)"/>
</clipPath>
</defs>
</svg>
